<svg xmlns="http://www.w3.org/2000/svg" viewBox="0 0 1559.08 553.09"><defs><style>.cls-1{fill:#d7c0d8;}.cls-2{fill:#fff;}.cls-3{fill:#0c5a53;}</style></defs><title>mountains</title><g id="Layer_2" data-name="Layer 2"><g id="Layer_1-2" data-name="Layer 1"><path class="cls-1" d="M328.46,551.26h687.32L645.4,27.51s-2.72-2.89-8.51-2.89A17.86,17.86,0,0,0,627,27.68L328.46,551.26"/><path class="cls-1" d="M565.34,551.26h687.32L882.27,27.51s-2.72-2.89-8.51-2.89a17.9,17.9,0,0,0-9.87,3.06L565.34,551.26"/><path class="cls-2" d="M588.22,95.19s5.86-6.51,2.29,15.28c-.51,7.65,7.15-9.88,9-9.54s-4.09,23.32,2.55,17.2c7.49-11.51,20.94-19.58,24.34-19.58s8,14.81,17.53,14.81,11.07-5.79,15.49-5.79,9.54,7.66,13.45,3.75-4.94-22.47.68-23,22.81,26.38,31,25.36,3.92-.51,3.92-.51-11.54-86-63.92-94.59-56.33,76.59-56.33,76.59"/><path class="cls-2" d="M822.6,87.74s4.59,19.07,20.78,19.26c13.28,0,11.58-15,20.77-15s20.08,30.64,26.38,30.64,11.4-22.13,14.3-24.34,13,6.87,50,14.28C1043.11,118.47,859.47,0,859.47,0Z"/><rect class="cls-3" x="166.51" y="427.53" width="211.4" height="122.55"/><polygon class="cls-3" points="228.94 410.12 140.99 322.16 52.28 410.87 228.94 410.12"/><polygon class="cls-3" points="281.21 551.88 141.21 411.87 0 553.09 281.21 551.88"/><polygon class="cls-3" points="249 476.29 141.07 368.36 32.21 477.22 249 476.29"/><polygon class="cls-3" points="434.53 337.23 357.73 260.43 280.25 337.89 434.53 337.23"/><polygon class="cls-3" points="480.18 460.16 357.92 337.89 234.6 461.21 480.18 460.16"/><polygon class="cls-3" points="452.05 395.02 357.8 300.76 262.73 395.83 452.05 395.02"/><polygon class="cls-3" points="444.51 550.98 336.57 443.05 227.71 551.91 444.51 550.98"/><polygon class="cls-3" points="352.94 370.29 264.98 282.34 176.27 371.05 352.94 370.29"/><polygon class="cls-3" points="405.21 511.05 265.21 371.05 124 512.26 405.21 511.05"/><polygon class="cls-3" points="373 436.46 265.07 328.53 156.21 437.39 373 436.46"/><polygon class="cls-3" points="430.77 489.77 336.51 395.52 241.45 490.59 430.77 489.77"/><rect class="cls-3" x="1181.16" y="427.53" width="211.4" height="122.55"/><polygon class="cls-3" points="1330.14 410.12 1418.09 322.16 1506.81 410.87 1330.14 410.12"/><polygon class="cls-3" points="1277.87 551.88 1417.87 411.87 1559.08 553.09 1277.87 551.88"/><polygon class="cls-3" points="1310.08 476.29 1418.01 368.36 1526.87 477.22 1310.08 476.29"/><polygon class="cls-3" points="1124.55 337.23 1201.36 260.43 1278.83 337.89 1124.55 337.23"/><polygon class="cls-3" points="1078.9 460.16 1201.16 337.89 1324.48 461.21 1078.9 460.16"/><polygon class="cls-3" points="1107.03 395.02 1201.28 300.76 1296.35 395.83 1107.03 395.02"/><polygon class="cls-3" points="1114.58 550.98 1222.51 443.05 1331.37 551.91 1114.58 550.98"/><polygon class="cls-3" points="1206.14 370.29 1294.1 282.34 1382.81 371.05 1206.14 370.29"/><polygon class="cls-3" points="1153.87 511.05 1293.87 371.05 1435.08 512.26 1153.87 511.05"/><polygon class="cls-3" points="1186.08 436.46 1294.01 328.53 1402.87 437.39 1186.08 436.46"/><polygon class="cls-3" points="1128.31 489.77 1222.57 395.52 1317.63 490.59 1128.31 489.77"/></g></g></svg>