<svg xmlns="http://www.w3.org/2000/svg" viewBox="0 0 505.26 76.94"><defs><style>.cls-1{fill:#fff;}</style></defs><title>clouds_right</title><g id="Layer_2" data-name="Layer 2"><g id="Layer_1-2" data-name="Layer 1"><path class="cls-1" d="M0,5.79C-.6,9.88,38.28,10.9,38.28,10.9H113.6s99,2.55,125.75,0,54.06,9.7,80.79,8.68c9.57,0,26.27,1.41,33,1.53s49-1.78,49-1.78,75.93-6.89,94.76-5.87,3-4.6-26.73-4.6-71.68,0-103.26-6.13-69.26,0-77.76,0-68,2-82.62,1S179.82-.16,170.7,0s-60.13,3.74-68.64,3.74S7.3.69,3.65,3.24Z"/><path class="cls-1" d="M362,63.55c-20.93,0-84.25,7.15-112.85,7.15s-55.66,4.42-55.66,5.78,37.21-.85,49.76,0,77.9-7.2,88.11-6.24c10,1,53,6.24,74.05,6.24S487.66,70.3,502,70.24c8.93-2.31-1.53-3.47-16.34-4.32C416.17,69.51,362,63.55,362,63.55Z"/></g></g></svg>