<svg xmlns="http://www.w3.org/2000/svg" viewBox="0 0 1569.63 527.58"><defs><style>.cls-1{fill:#d7c0d8;}.cls-2{fill:#0c5a53;}.cls-3{fill:#fff;}</style></defs><title>mountains_new</title><g id="Layer_2" data-name="Layer 2"><g id="Layer_1-2" data-name="Layer 1"><path class="cls-1" d="M333.4,526.89h687.31L650.33,3.15s-2.72-2.9-8.51-2.9A17.82,17.82,0,0,0,632,3.32L333.4,526.89"/><path class="cls-1" d="M570.27,526.89h687.32L887.21,3.15S884.48.25,878.7.25a17.87,17.87,0,0,0-9.88,3.07L570.27,526.89"/><polygon class="cls-2" points="234.87 385.75 146.92 297.8 58.21 386.51 234.87 385.75"/><polygon class="cls-2" points="254.94 451.92 147.01 343.99 38.14 452.86 254.94 451.92"/><polygon class="cls-2" points="440.46 312.87 363.66 236.06 286.19 313.53 440.46 312.87"/><polygon class="cls-2" points="486.12 435.79 363.85 313.53 240.54 436.85 486.12 435.79"/><polygon class="cls-2" points="457.99 370.65 363.73 276.4 268.67 371.47 457.99 370.65"/><polygon class="cls-2" points="358.87 345.93 270.92 257.97 182.21 346.68 358.87 345.93"/><polygon class="cls-2" points="411.14 486.69 271.14 346.68 129.93 487.89 411.14 486.69"/><polygon class="cls-2" points="378.93 412.1 271 304.17 162.14 413.03 378.93 412.1"/><polygon class="cls-2" points="436.7 465.41 342.45 371.15 247.38 466.22 436.7 465.41"/><path class="cls-3" d="M847.88,82.64c13.28,0,11.58-15,20.77-15S888.73,98.29,895,98.29,906.44,76.17,909.33,74c2.46-1.88,10.18,4.42,35.23,10.9L886.77,3.15s-2.72-2.9-8.51-2.9a17.86,17.86,0,0,0-9.87,3.07L830,70.6C833,76,838.46,82.52,847.88,82.64Z"/><path class="cls-3" d="M595.4,85.85c-.51,7.66,7.15-9.87,9-9.53S600.33,99.64,607,93.51c7.49-11.51,20.94-19.58,24.34-19.58s8,14.81,17.53,14.81S659.91,83,664.33,83s9.53,7.66,13.45,3.74-4.94-22.47.68-23,22.81,26.38,31,25.36l1.65-.2-60.8-86S647.56,0,641.78,0a17.91,17.91,0,0,0-9.88,3.06l-38.2,67C595.09,69.1,598.25,68.45,595.4,85.85Z"/><polygon class="cls-2" points="282.42 527.18 141.21 385.97 0 527.18 282.42 527.18"/><polygon class="cls-2" points="452.3 527.58 312.09 386.37 170.88 527.58 452.3 527.58"/><polygon class="cls-2" points="1334.76 385.06 1422.71 297.11 1511.42 385.82 1334.76 385.06"/><polygon class="cls-2" points="1314.7 451.23 1422.63 343.3 1531.49 452.16 1314.7 451.23"/><polygon class="cls-2" points="1129.17 312.18 1205.98 235.37 1283.45 312.84 1129.17 312.18"/><polygon class="cls-2" points="1083.52 435.1 1205.78 312.84 1329.1 436.16 1083.52 435.1"/><polygon class="cls-2" points="1111.65 369.96 1205.9 275.71 1300.97 370.78 1111.65 369.96"/><polygon class="cls-2" points="1210.77 345.23 1298.72 257.28 1387.43 345.99 1210.77 345.23"/><polygon class="cls-2" points="1158.49 486 1298.49 345.99 1439.7 487.2 1158.49 486"/><polygon class="cls-2" points="1190.7 411.41 1298.63 303.48 1407.49 412.34 1190.7 411.41"/><polygon class="cls-2" points="1132.93 464.72 1227.18 370.46 1322.25 465.53 1132.93 464.72"/><polygon class="cls-2" points="1287.21 526.49 1428.42 385.28 1569.63 526.49 1287.21 526.49"/><polygon class="cls-2" points="1116.33 526.89 1257.54 385.68 1398.76 526.89 1116.33 526.89"/></g></g></svg>