<svg xmlns="http://www.w3.org/2000/svg" viewBox="0 0 424.57 21.12"><defs><style>.cls-1{fill:#fff;}</style></defs><title>clouds_left</title><g id="Layer_2" data-name="Layer 2"><g id="Layer_1-2" data-name="Layer 1"><path class="cls-1" d="M424.56,15.33c.51-4.09-32.17-5.11-32.17-5.11H329.07s-83.23-2.55-105.7,0S177.92.52,155.45,1.54c-8,0-22.08-1.41-27.7-1.53S86.52,1.79,86.52,1.79,22.69,8.68,6.86,7.66s-2.56,4.6,22.47,4.6,60.25,0,86.8,6.13c25.75,5.94,57.94,0,65.37,0,7.14,0,57.19-2,69.44-1s22.47,3.91,30.13,3.74,50.55-3.74,57.7-3.74,79.66,3.06,82.73.51Z"/></g></g></svg>