<?xml version="1.0"?>
<svg xmlns="http://www.w3.org/2000/svg" id="Outline" viewBox="0 0 512 512" width="512" height="512"><path d="M375.761,25.94a8,8,0,0,0-6.768-9.878c-1.711-.211-37.7-4.425-70.533,13.413a7.97,7.97,0,0,0-2.369-1.342A71.682,71.682,0,0,0,272,24H208a71.687,71.687,0,0,0-24.091,4.133,7.99,7.99,0,0,0-2.369,1.341c-32.833-17.837-68.821-13.624-70.533-13.412a8,8,0,0,0-6.768,9.878c5.623,22.494,24.2,34.557,38.065,40.589A71.9,71.9,0,0,0,136,96V206.728c-2.429,7.741-13.069,46.341-1.81,97.007,7.228,32.523,22.033,63.286,44,91.437,14.875,19.058,33.078,36.925,54.422,53.47l-37.053,24.7A8,8,0,0,0,200,488H359.228A508.806,508.806,0,0,0,448,496a8,8,0,0,0,7.59-10.53c-.238-.712-23.84-71.971-31.652-134.462-3.509-28.075-9.236-64.688-22.477-98.9-13.511-34.9-32.343-61.145-57.461-80.127V96a71.965,71.965,0,0,0-6.308-29.491c2.281-.994,4.687-2.148,7.139-3.486C361.238,54.074,371.934,41.251,375.761,25.94ZM296,88a15.992,15.992,0,0,1-30.97,5.613,153.292,153.292,0,0,0,18.8-21.131A16.015,16.015,0,0,1,296,88ZM307.7,72H320a8.026,8.026,0,0,0,1.569-.155c.069-.014.373-.076.874-.192A55.952,55.952,0,0,1,328,96v37.2a62.756,62.756,0,0,1-17.875,14.453c-14.175,7.441-29.026,6.912-44.2-1.527a59.01,59.01,0,0,0-2.235-12.322A8,8,0,0,0,256,128H224a8,8,0,0,0-7.56,5.382,49.788,49.788,0,0,0-2.754,12.948c-15.074,8.257-29.831,8.7-43.914,1.267A62.8,62.8,0,0,1,152,133.2V96a55.891,55.891,0,0,1,5.56-24.344c.451.1.751.165.871.189A8.026,8.026,0,0,0,160,72h12.305a31.994,31.994,0,0,0,55.149,32.445q3.762,3.015,7.8,5.994a8,8,0,0,0,9.494,0q4.042-2.979,7.8-5.994A31.993,31.993,0,0,0,307.7,72ZM235.909,182.875a8,8,0,0,0,7.669.28c7.84-3.92,15.975-10.246,19.953-20.294A62.124,62.124,0,0,0,289.74,168.9a59.908,59.908,0,0,0,28.424-7.4A73.25,73.25,0,0,0,328,155.112v49.575l-10.348,10.346a8,8,0,0,1-11.3,0l-12.691-12.69a8,8,0,0,0-11.314,0l-12.69,12.69a8,8,0,0,1-11.306,0l-12.69-12.69a8,8,0,0,0-11.314,0l-12.689,12.69a8,8,0,0,1-11.307,0l-12.69-12.69a8,8,0,0,0-11.314,0l-12.689,12.69a8,8,0,0,1-11.307,0L152,204.687V155.111a73.112,73.112,0,0,0,9.705,6.315,59.932,59.932,0,0,0,28.548,7.469A62.149,62.149,0,0,0,216.5,162.84Q221.647,174.366,235.909,182.875ZM230.109,144h19.5c1.579,10.168-1.417,17.393-9.366,22.653C233.222,161.722,228.035,155.188,230.109,144ZM208,40h64a56.261,56.261,0,0,1,11.112,1.1C275.74,59.82,261.55,77.215,240,93.968,218.451,77.216,204.26,59.821,196.888,41.1A56.261,56.261,0,0,1,208,40ZM196.173,72.482a153.292,153.292,0,0,0,18.8,21.131,15.992,15.992,0,1,1-18.8-21.131ZM123.67,31.53c13.895.157,38.8,2.8,59.257,17.7q1.435,3.416,3.128,6.771H160.9C156.638,54.972,133.9,48.767,123.67,31.53ZM226.422,472l19.863-13.242q9.607,6.785,19.958,13.242Zm71.6,0c-45.4-24.688-81.332-53.675-106.834-86.182-20.512-26.144-34.37-54.64-41.189-84.7a191.285,191.285,0,0,1-1.654-77.459l2.686,2.686a24.025,24.025,0,0,0,33.933,0L192,219.313l7.034,7.035a24.03,24.03,0,0,0,28.392,4.119,239.545,239.545,0,0,0,1.687,69.872,254,254,0,0,0,34.446,90.724c18.054,29.383,42.469,56.526,72.71,80.937Zm43.632-258.343A8,8,0,0,0,344,208V192.774c43.434,39.612,56.867,102.661,64.062,160.218,6.273,50.188,21.969,104.346,28.946,126.867a506.189,506.189,0,0,1-73.751-7.386c-36.6-26.378-65.463-56.415-85.775-89.314a238.266,238.266,0,0,1-32.457-84.695,221.32,221.32,0,0,1-.392-74.517l2.4,2.4a24.027,24.027,0,0,0,33.933,0L288,219.313l7.033,7.035a24.024,24.024,0,0,0,33.934,0ZM319.106,56H293.945q1.692-3.356,3.127-6.771c20.467-14.9,45.369-17.543,59.258-17.7C346.087,48.781,323.322,54.982,319.106,56Z"/></svg>
